<svg width="19" height="19" viewBox="0 0 19 19" fill="none" xmlns="http://www.w3.org/2000/svg">
<path d="M8.84375 8.84375L8.87963 8.82625C8.99183 8.7702 9.11774 8.74747 9.24246 8.76076C9.36717 8.77405 9.48547 8.82281 9.58334 8.90125C9.68121 8.97969 9.75454 9.08453 9.79467 9.20336C9.8348 9.32219 9.84003 9.45004 9.80975 9.57175L9.19025 12.0533C9.15975 12.175 9.16482 12.303 9.20486 12.422C9.24489 12.5409 9.31821 12.646 9.41612 12.7245C9.51403 12.8031 9.63242 12.8519 9.75725 12.8652C9.88207 12.8785 10.0081 12.8558 10.1204 12.7996L10.1562 12.7812M17.375 9.5C17.375 10.5342 17.1713 11.5582 16.7756 12.5136C16.3798 13.4691 15.7997 14.3372 15.0685 15.0685C14.3372 15.7997 13.4691 16.3798 12.5136 16.7756C11.5582 17.1713 10.5342 17.375 9.5 17.375C8.46584 17.375 7.44181 17.1713 6.48637 16.7756C5.53093 16.3798 4.6628 15.7997 3.93153 15.0685C3.20027 14.3372 2.6202 13.4691 2.22445 12.5136C1.82869 11.5582 1.625 10.5342 1.625 9.5C1.625 7.41142 2.45469 5.40838 3.93153 3.93153C5.40838 2.45469 7.41142 1.625 9.5 1.625C11.5886 1.625 13.5916 2.45469 15.0685 3.93153C16.5453 5.40838 17.375 7.41142 17.375 9.5ZM9.5 6.21875H9.507V6.22575H9.5V6.21875Z" stroke="#878787" stroke-width="1.5" stroke-linecap="round" stroke-linejoin="round"/>
</svg>
