<svg width="14" height="14" viewBox="0 0 14 14" fill="none" xmlns="http://www.w3.org/2000/svg">
<path d="M5.58133 1.75H3.0625C2.7144 1.75 2.38056 1.88828 2.13442 2.13442C1.88828 2.38056 1.75 2.7144 1.75 3.0625V5.58133C1.75 5.92958 1.88825 6.26383 2.13442 6.50942L7.72333 12.0983C8.13108 12.5061 8.76167 12.607 9.24408 12.2908C10.4584 11.4955 11.4955 10.4584 12.2908 9.24408C12.607 8.76167 12.5061 8.13108 12.0983 7.72333L6.51 2.135C6.3881 2.01295 6.24334 1.91612 6.08399 1.85006C5.92464 1.784 5.75383 1.75 5.58133 1.75Z" stroke="black" stroke-width="1.5" stroke-linecap="round" stroke-linejoin="round"/>
<path d="M3.5 3.5H3.50467V3.50467H3.5V3.5Z" stroke="black" stroke-width="1.5" stroke-linecap="round" stroke-linejoin="round"/>
</svg>
